<svg width="1000" height="1000" viewBox="0 0 1000 1000" fill="none" xmlns="http://www.w3.org/2000/svg">
<path d="M500.141 0.5C776.007 0.5 999.641 224.134 999.641 500C999.641 775.866 776.007 999.5 500.141 999.5C224.274 999.5 0.640625 775.866 0.640625 500C0.640625 224.134 224.274 0.5 500.141 0.5ZM500.141 40.5C246.366 40.5 40.6406 246.225 40.6406 500C40.6406 753.775 246.366 959.5 500.141 959.5C753.915 959.5 959.641 753.775 959.641 500C959.641 246.225 753.915 40.5 500.141 40.5ZM450.698 301.015C536.033 278.149 630.152 292.021 653.923 380.734C663.299 415.727 656.453 443.445 627.351 451.243C608.113 456.398 573.992 445.467 589.932 398.409L602.919 360.064C606.461 349.607 602.604 341.132 596.747 339.004C587.402 335.697 577.176 338.966 561.823 346.777L361.509 449.578C341.487 459.697 339.064 470.383 343.316 480.336C347.701 490.782 355.302 493.5 371.879 492.228L635.099 470.297C664.535 467.692 683.629 483.705 689.968 507.362C708.324 575.869 637.532 668.791 524.576 699.058C406.193 730.778 348.973 679.024 333.654 621.853C326.391 594.746 328.791 560.295 358.387 552.365C382.063 546.021 402.276 562.263 407.822 582.963L430.272 666.748C436.611 690.405 454.71 698.761 480.477 676.538L630.8 546.986C631.271 546.585 631.741 546.185 632.208 545.787C649.674 530.916 664.264 518.494 654.701 502.021C648.31 491.012 640.753 488.414 630.751 490.119L626.345 490.76L455.336 510.112C455.336 510.112 420.485 514.401 407.436 515.481C394.387 516.563 396.822 516.006 390.058 516.162L357.167 516.243C335.623 516.733 317.022 500.588 311.607 480.381C288.629 394.624 363.884 324.276 450.698 301.015Z" fill="black"/>
</svg>
