<svg width="793" height="859" viewBox="0 0 793 859" fill="none" xmlns="http://www.w3.org/2000/svg">
<path d="M54.0785 679.838C85.5603 797.33 203.151 903.691 446.439 838.502C678.575 776.301 824.059 585.338 786.335 444.55C773.308 395.933 734.069 363.023 673.574 368.377L132.634 413.448C98.5667 416.063 82.946 410.478 73.9342 389.01C65.1938 368.555 70.1743 346.594 111.321 325.799L522.985 114.535C554.537 98.4813 575.553 91.7644 594.758 98.5599C606.795 102.934 614.721 120.35 607.442 141.841L580.751 220.642C547.994 317.351 618.116 339.814 657.65 329.221C717.458 313.195 731.529 256.231 712.26 184.318C663.409 2.00308 469.984 -26.5018 294.614 20.4884C116.203 68.2934 -38.4528 212.863 8.7701 389.101C19.8973 430.629 58.123 463.809 102.399 462.802L169.992 462.636C183.893 462.315 178.888 463.458 205.705 461.236C232.523 459.015 304.144 450.202 304.144 450.202L655.583 410.43L664.638 409.114C685.193 405.61 700.725 410.949 713.859 433.573C733.512 467.427 703.527 492.957 667.633 523.518C666.673 524.336 665.708 525.157 664.74 525.982L355.812 792.223C302.86 837.893 265.664 820.72 252.637 772.103L206.5 599.916C195.102 557.376 153.563 523.997 104.906 537.035C44.0837 553.332 39.1517 624.131 54.0785 679.838Z" fill="black"/>
</svg>
