<svg width="1001" height="546" viewBox="0 0 1001 546" fill="none" xmlns="http://www.w3.org/2000/svg">
<path d="M801.934 6.62109H891.986V238.584H909.997V6.62109H1000.05V539.61H909.997V331.669H891.986V539.61H801.934V6.62109Z" fill="black"/>
<path d="M685.35 545.617C663.837 545.617 646.077 542.114 632.069 535.108C618.561 528.101 608.305 517.341 601.301 502.828C594.797 487.814 591.545 468.797 591.545 445.776V370.707H677.846V445.776C677.846 450.28 678.096 453.783 678.596 456.285C679.597 458.287 680.597 459.788 681.598 460.789C683.099 461.79 684.85 462.291 686.851 462.291H687.601C689.603 462.291 691.103 461.79 692.104 460.789C693.605 459.788 694.605 458.287 695.106 456.285C696.106 453.783 696.607 450.28 696.607 445.776V374.46C696.607 365.452 695.856 357.945 694.355 351.94C692.854 345.934 690.353 340.679 686.851 336.175C683.849 331.17 679.347 326.166 673.343 321.161L626.816 282.125C617.811 274.118 610.306 265.861 604.303 257.353C598.799 248.344 594.547 238.335 591.545 227.325C589.044 216.315 587.793 203.303 587.793 188.289V101.96C587.793 78.4386 591.295 59.4211 598.299 44.9078C605.804 29.8941 616.56 18.884 630.568 11.8776C645.076 4.37064 663.337 0.617188 685.35 0.617188H688.352C710.365 0.617188 728.375 4.1204 742.383 11.1268C756.392 18.1333 766.648 29.1434 773.151 44.1572C779.655 59.1709 782.907 78.4386 782.907 101.96V171.774H696.607V101.96C696.607 96.9556 696.106 93.2021 695.106 90.6998C694.605 88.1975 693.605 86.4459 692.104 85.445C691.103 84.4441 689.603 83.9436 687.601 83.9436H686.851C683.849 83.9436 681.598 85.1948 680.097 87.6971C678.596 90.1994 677.846 94.9538 677.846 101.96V162.015C677.846 171.524 678.596 179.531 680.097 186.037C682.098 192.043 684.85 197.798 688.352 203.303C692.354 208.308 697.607 213.563 704.111 219.068L739.382 248.344C751.889 258.354 761.394 268.363 767.898 278.372C774.902 288.381 779.655 299.391 782.157 311.402C785.158 323.413 786.659 338.177 786.659 355.693V445.776C786.659 468.797 782.907 487.814 775.403 502.828C768.399 517.341 757.642 528.101 743.134 535.108C728.625 542.114 710.365 545.617 688.352 545.617H685.35Z" fill="black"/>
<path d="M472.968 545.616C451.455 545.616 433.445 542.363 418.936 535.857C404.428 528.85 393.421 518.591 385.917 505.078C378.412 491.566 374.66 474.801 374.66 454.782V6.62109H464.713V445.023C464.713 449.527 464.963 453.031 465.463 455.533C466.464 458.035 467.464 459.787 468.465 460.788C469.966 461.789 471.717 462.289 473.718 462.289H474.469C476.47 462.289 477.971 461.789 478.971 460.788C480.472 459.787 481.473 458.035 481.973 455.533C482.973 453.031 483.474 449.527 483.474 445.023V6.62109H573.526V453.281C573.526 473.8 569.774 491.066 562.27 505.078C554.765 518.591 543.759 528.85 529.251 535.857C515.242 542.363 497.482 545.616 475.969 545.616H472.968Z" fill="black"/>
<path d="M214.18 6.62109H304.232V445.774H366.519V539.61H214.18V6.62109Z" fill="black"/>
<path d="M97.6078 545.617C76.0952 545.617 58.3349 542.114 44.3267 535.108C30.8188 528.101 20.5628 517.341 13.5587 502.828C7.05488 487.814 3.80298 468.797 3.80298 445.776V370.707H90.1034V445.776C90.1034 450.28 90.3536 453.783 90.8539 456.285C91.8545 458.287 92.8551 459.788 93.8556 460.789C95.3565 461.79 97.1075 462.291 99.1087 462.291H99.8591C101.86 462.291 103.361 461.79 104.362 460.789C105.863 459.788 106.863 458.287 107.364 456.285C108.364 453.783 108.864 450.28 108.864 445.776V374.46C108.864 365.452 108.114 357.945 106.613 351.94C105.112 345.934 102.611 340.679 99.1087 336.175C96.1069 331.17 91.6043 326.166 85.6008 321.161L39.0736 282.125C30.0683 274.118 22.5639 265.861 16.5604 257.353C11.0572 248.344 6.80473 238.335 3.80298 227.325C1.30151 216.315 0.0507812 203.303 0.0507812 188.289V101.96C0.0507812 78.4386 3.55283 59.4211 10.5569 44.9078C18.0613 29.8941 28.8176 18.884 42.8258 11.8776C57.3343 4.37064 75.595 0.617188 97.6078 0.617188H100.61C122.622 0.617188 140.633 4.1204 154.641 11.1268C168.649 18.1333 178.905 29.1434 185.409 44.1572C191.913 59.1709 195.165 78.4386 195.165 101.96V171.774H108.864V101.96C108.864 96.9556 108.364 93.2021 107.364 90.6998C106.863 88.1975 105.863 86.4459 104.362 85.445C103.361 84.4441 101.86 83.9436 99.8591 83.9436H99.1087C96.1069 83.9436 93.8556 85.1948 92.3548 87.6971C90.8539 90.1994 90.1034 94.9538 90.1034 101.96V162.015C90.1034 171.524 90.8539 179.531 92.3548 186.037C94.3559 192.043 97.1075 197.798 100.61 203.303C104.612 208.308 109.865 213.563 116.369 219.068L151.639 248.344C164.147 258.354 173.652 268.363 180.156 278.372C187.16 288.381 191.913 299.391 194.414 311.402C197.416 323.413 198.917 338.177 198.917 355.693V445.776C198.917 468.797 195.165 487.814 187.66 502.828C180.656 517.341 169.9 528.101 155.392 535.108C140.883 542.114 122.622 545.617 100.61 545.617H97.6078Z" fill="black"/>
</svg>
